<?xml version="1.0" standalone="no"?>
<!DOCTYPE svg PUBLIC "-//W3C//DTD SVG 20010904//EN"
 "http://www.w3.org/TR/2001/REC-SVG-20010904/DTD/svg10.dtd">
<svg version="1.0" xmlns="http://www.w3.org/2000/svg"
 width="1024.000000pt" height="1024.000000pt" viewBox="0 0 1024.000000 1024.000000"
 preserveAspectRatio="xMidYMid meet">

<g transform="translate(0.000000,1024.000000) scale(0.100000,-0.100000)"
fill="#000000" stroke="none">
<path d="M4755 10219 c-251 -23 -649 -78 -675 -94 -3 -2 -52 -13 -110 -25 -58
-12 -157 -37 -221 -56 -64 -19 -121 -34 -128 -34 -7 0 -27 -6 -44 -14 -18 -8
-70 -26 -117 -41 -47 -15 -103 -35 -125 -45 -22 -10 -74 -30 -115 -45 -41 -15
-112 -45 -158 -66 -46 -22 -86 -39 -89 -39 -7 0 -264 -130 -318 -161 -22 -12
-71 -39 -108 -60 -37 -21 -87 -52 -110 -69 -22 -16 -46 -30 -53 -30 -7 0 -14
-3 -16 -7 -2 -7 -65 -50 -262 -183 -30 -20 -94 -69 -132 -100 -97 -79 -128
-104 -238 -201 -492 -431 -901 -964 -1195 -1559 -292 -591 -455 -1169 -516
-1833 -34 -375 -12 -933 51 -1287 66 -374 163 -716 294 -1045 58 -147 205
-462 226 -484 4 -4 73 50 121 95 19 18 42 36 52 39 17 6 134 154 162 206 9 16
29 47 43 69 14 22 26 46 26 53 0 7 5 18 11 24 12 12 21 26 57 92 12 22 27 41
33 41 5 0 23 13 39 30 16 16 40 32 54 36 14 3 26 11 26 16 0 10 275 288 286
288 3 0 80 73 170 162 90 90 195 190 234 223 92 77 183 145 194 145 4 0 38 20
75 44 36 24 92 56 123 69 32 14 72 36 90 49 18 13 47 30 63 37 17 7 39 18 50
24 58 32 198 97 208 97 7 0 41 18 75 40 42 27 80 43 110 46 48 6 70 13 132 44
19 10 54 21 76 25 25 4 50 16 63 31 11 13 25 24 31 24 5 0 10 7 10 15 0 8 7
15 15 15 10 0 15 10 15 27 0 14 3 23 7 20 10 -11 33 13 33 34 0 12 7 19 18 19
11 0 26 8 35 18 10 10 27 18 40 16 12 -1 28 -3 36 -3 8 -1 11 -8 8 -21 -3 -11
-1 -23 5 -26 5 -3 7 -12 4 -20 -3 -8 -1 -14 5 -14 6 0 7 -4 4 -10 -3 -5 1 -10
9 -10 9 0 16 -5 16 -11 0 -7 10 -9 24 -5 14 3 28 2 31 -4 8 -13 55 -13 55 0 0
5 10 9 23 9 67 -2 250 79 280 124 8 12 20 39 26 60 11 32 10 41 -3 62 -9 13
-16 31 -16 39 0 9 -16 51 -36 93 -54 120 -68 147 -81 161 -7 7 -21 32 -31 55
-11 24 -38 70 -61 102 -70 101 -91 135 -91 152 0 8 -9 30 -20 48 -19 31 -40
86 -77 200 -9 28 -34 103 -55 168 -21 65 -38 126 -38 136 0 10 -3 21 -7 25
-30 29 -54 317 -33 396 20 78 24 350 7 536 -9 93 -19 210 -22 260 -3 50 -10
106 -15 124 -16 55 -24 347 -12 412 6 32 14 99 17 150 4 51 9 100 12 108 3 8
5 25 4 37 -1 12 3 48 8 80 8 40 8 76 2 110 -7 32 -7 63 0 85 10 38 40 78 57
78 6 0 28 21 49 47 21 26 63 72 94 103 52 51 189 223 189 236 0 8 88 92 134
127 20 16 34 32 31 38 -4 5 2 9 12 9 10 0 51 25 91 55 40 30 76 55 80 55 4 0
27 14 52 30 25 17 61 38 80 47 19 10 40 22 45 28 6 7 37 29 70 50 33 21 62 41
65 44 3 3 19 13 35 21 17 8 35 21 40 27 18 23 208 123 232 123 7 0 13 4 13 8
0 10 36 22 156 52 96 24 297 27 389 5 118 -27 198 -51 220 -66 6 -3 22 -9 38
-13 15 -4 52 -18 82 -31 29 -14 56 -25 59 -25 3 0 52 -22 109 -48 56 -27 139
-64 185 -82 45 -19 91 -42 102 -52 10 -10 21 -18 24 -18 6 0 155 -89 171 -102
6 -5 55 -42 110 -84 55 -41 105 -82 111 -90 6 -8 15 -14 20 -14 5 0 28 -13 50
-28 185 -121 286 -192 329 -227 28 -23 66 -52 85 -65 19 -13 47 -36 62 -52 15
-15 32 -28 38 -28 20 0 237 -227 244 -256 4 -16 16 -38 26 -49 10 -11 31 -65
48 -120 37 -120 39 -151 52 -835 9 -508 8 -493 61 -680 34 -120 38 -149 39
-255 0 -181 -48 -358 -150 -551 -22 -42 -49 -89 -60 -104 -11 -16 -20 -31 -20
-34 0 -21 -112 -165 -207 -264 -29 -31 -53 -57 -53 -58 0 -1 -19 -30 -42 -64
-47 -70 -89 -174 -95 -235 -9 -99 85 -168 307 -223 137 -34 222 -49 345 -62
82 -8 148 -19 290 -44 44 -8 112 -20 150 -27 574 -95 747 -157 994 -355 69
-56 137 -112 151 -126 78 -75 250 -270 250 -283 0 -4 10 -22 23 -39 44 -59
141 -267 222 -476 21 -52 45 -111 55 -130 10 -19 34 -66 53 -105 44 -90 70
-139 78 -145 3 -3 10 -13 15 -22 9 -16 26 21 109 242 75 200 176 601 224 890
69 420 82 980 31 1395 -35 286 -101 612 -169 840 -60 201 -147 448 -201 570
-68 153 -177 376 -232 475 -14 25 -40 72 -59 105 -18 33 -48 81 -66 107 -18
26 -33 52 -33 57 0 5 -3 11 -8 13 -4 2 -26 33 -49 71 -23 37 -47 73 -53 80 -5
6 -41 55 -78 107 -65 92 -93 127 -119 155 -7 8 -13 15 -13 18 0 2 -13 19 -29
38 -16 19 -51 59 -76 89 -100 117 -174 197 -281 304 -115 115 -120 120 -269
249 -140 123 -158 137 -164 137 -3 0 -19 12 -36 28 -44 40 -126 100 -255 186
-63 43 -122 83 -130 89 -8 7 -37 25 -65 41 -27 16 -52 32 -55 35 -3 3 -18 13
-35 21 -16 8 -47 25 -68 38 -209 127 -599 303 -867 392 -52 17 -102 35 -110
39 -9 5 -63 21 -120 35 -57 15 -118 33 -135 40 -16 7 -53 16 -80 20 -28 5 -84
16 -125 26 -184 45 -391 76 -700 105 -168 16 -611 18 -765 4z m-118 -45 c-3
-3 -12 -4 -19 -1 -8 3 -5 6 6 6 11 1 17 -2 13 -5z"/>
<path d="M5070 9280 c0 -5 5 -10 11 -10 5 0 7 5 4 10 -3 6 -8 10 -11 10 -2 0
-4 -4 -4 -10z"/>
<path d="M5380 9265 c-14 -8 -54 -15 -90 -16 -36 -2 -75 -9 -87 -17 -25 -16
-45 -8 -41 16 3 18 -1 19 -49 8 -21 -6 -33 -16 -37 -32 -5 -20 -12 -24 -39
-22 -17 1 -44 -6 -58 -15 -14 -9 -51 -19 -81 -21 -31 -3 -69 -11 -85 -19 -15
-8 -53 -20 -83 -27 -57 -13 -100 -34 -100 -49 0 -5 9 -7 20 -4 11 3 20 1 20
-5 0 -6 -8 -13 -17 -15 -17 -4 -17 -5 0 -6 9 0 17 -6 17 -12 0 -12 -46 -59
-57 -59 -3 0 -21 -18 -40 -40 -19 -22 -41 -40 -48 -40 -8 0 -22 -16 -31 -35
-9 -19 -23 -35 -30 -35 -18 0 -18 15 2 48 13 21 8 19 -21 -11 -23 -25 -34 -44
-31 -54 4 -9 -1 -24 -9 -33 -9 -10 -15 -30 -13 -46 2 -23 -1 -29 -17 -30 -11
-1 -28 -5 -37 -9 -10 -4 -25 -4 -34 -1 -9 3 -25 -1 -37 -9 -12 -8 -29 -15 -37
-15 -26 0 -113 -46 -135 -71 l-20 -22 32 18 c38 22 59 11 25 -14 -13 -9 -38
-28 -57 -43 -18 -16 -37 -28 -43 -28 -5 0 -26 -22 -47 -48 -20 -27 -50 -56
-66 -66 -16 -9 -29 -24 -29 -32 0 -8 -4 -14 -9 -14 -9 0 -35 -50 -91 -175 -39
-87 -73 -208 -77 -277 -3 -38 -2 -68 2 -68 12 0 35 28 35 43 0 21 33 83 37 70
3 -7 -5 -33 -16 -59 -12 -26 -21 -57 -21 -69 0 -12 -8 -37 -17 -56 -15 -29
-17 -63 -17 -234 2 -264 34 -563 75 -690 16 -49 29 -95 29 -102 0 -7 4 -21 9
-31 39 -74 60 -123 66 -161 4 -24 16 -62 26 -85 10 -23 19 -60 19 -83 0 -84
17 -41 30 77 9 86 10 158 4 257 -5 76 -9 203 -9 283 0 137 2 151 34 250 19 58
38 109 43 114 4 6 8 31 8 57 0 26 5 60 10 74 6 15 12 82 14 149 3 66 9 132 14
146 5 14 12 50 16 80 4 30 11 71 16 90 4 19 14 60 21 90 15 67 51 150 89 204
42 60 94 113 106 109 6 -2 18 7 27 21 37 56 117 116 117 87 0 -4 11 -6 25 -3
15 2 25 0 25 -7 0 -6 18 -11 44 -11 38 0 52 6 97 45 29 25 62 45 73 45 24 0
69 36 79 63 9 25 30 21 65 -13 23 -22 41 -30 68 -30 24 0 34 4 31 13 -7 21 32
87 52 87 23 0 32 -19 20 -42 -7 -12 -1 -25 24 -50 17 -18 34 -33 37 -33 24 -4
50 -19 49 -28 -3 -21 13 -77 22 -77 5 0 9 -6 9 -13 0 -8 15 -21 33 -29 17 -9
53 -26 80 -39 26 -12 47 -26 47 -31 0 -4 7 -8 15 -8 8 0 15 -4 15 -9 0 -11 88
-34 100 -26 5 3 11 1 14 -4 4 -5 22 -8 41 -6 20 2 41 -3 48 -10 19 -18 78 -47
84 -41 3 3 22 -3 42 -14 54 -27 140 -40 268 -40 83 0 137 -6 200 -22 71 -17
95 -20 135 -11 34 7 54 6 68 -1 20 -12 99 -64 138 -91 24 -18 47 -66 58 -121
3 -19 13 -41 20 -49 15 -15 22 -65 11 -82 -10 -16 9 -277 28 -387 9 -49 27
-121 41 -160 43 -123 53 -184 53 -321 0 -71 -4 -156 -8 -187 -8 -63 16 -298
31 -298 4 0 8 9 8 19 0 11 7 26 15 34 8 8 12 17 9 20 -4 3 4 41 17 84 25 85
57 126 93 121 12 -1 35 7 50 20 21 16 24 22 12 22 -23 0 -33 30 -13 42 20 10
54 84 63 136 4 20 10 42 14 47 31 41 42 294 29 650 -3 88 -2 167 3 176 5 12 1
21 -17 33 -27 17 -47 103 -27 115 13 8 2 62 -22 106 -20 38 -20 64 1 87 15 17
15 18 -5 18 -12 0 -22 4 -22 9 0 5 -49 58 -108 118 -106 106 -108 109 -110
157 -1 41 -7 56 -34 83 -17 18 -36 33 -41 33 -15 0 -130 71 -162 100 -16 15
-41 31 -55 35 -36 11 -101 54 -132 88 -15 16 -67 60 -115 98 -49 39 -106 84
-127 102 -37 30 -120 90 -155 112 -8 6 -34 22 -56 36 -22 14 -80 41 -130 58
-49 18 -106 38 -125 45 -19 8 -61 18 -93 24 -32 6 -72 18 -89 27 -17 8 -32 15
-32 14 -1 -1 -12 -7 -26 -14z m-1340 -921 c0 -18 -77 -100 -86 -92 -7 8 65
108 77 108 5 0 9 -7 9 -16z m-120 -128 c0 -2 -8 -10 -17 -17 -16 -13 -17 -12
-4 4 13 16 21 21 21 13z m3020 -69 c8 -14 11 -29 7 -33 -10 -10 -33 15 -42 45
-10 32 15 24 35 -12z"/>
<path d="M4517 8964 c-4 -4 -7 -14 -7 -23 0 -11 3 -12 11 -4 6 6 10 16 7 23
-2 6 -7 8 -11 4z"/>
<path d="M4820 7359 c-77 -7 -198 -35 -258 -61 -24 -10 -52 -18 -63 -18 -10 0
-19 -4 -19 -9 0 -7 -28 -23 -128 -69 -43 -21 -85 -59 -79 -75 2 -6 12 -14 23
-16 10 -2 22 -8 25 -13 3 -5 26 -1 55 10 27 10 57 17 67 14 9 -2 17 1 17 7 0
6 20 11 48 11 26 0 70 7 97 15 62 19 127 12 118 -13 -4 -9 -11 -20 -17 -24 -7
-5 -5 -8 5 -8 9 0 22 -7 29 -15 10 -12 7 -15 -14 -21 -32 -8 -33 -18 -3 -31
l22 -11 -25 -10 c-14 -5 -59 -12 -99 -16 -41 -4 -84 -14 -95 -22 -11 -8 -28
-14 -37 -14 -10 0 -19 -6 -22 -12 -2 -7 -8 -10 -12 -6 -10 10 13 38 31 38 8 0
14 4 14 8 0 5 15 16 33 25 l32 17 -39 -6 c-42 -7 -126 -50 -126 -65 0 -5 -8
-9 -18 -9 -9 0 -29 -11 -43 -24 -14 -13 -35 -26 -46 -30 -12 -4 -26 -20 -33
-36 -10 -24 -9 -32 7 -54 10 -14 26 -26 35 -26 18 0 123 26 136 34 5 3 20 -6
35 -18 15 -13 54 -29 87 -36 33 -7 63 -16 65 -21 8 -12 -52 -21 -100 -15 -28
4 -45 3 -45 -4 0 -5 -7 -10 -15 -10 -8 0 -15 -3 -15 -7 0 -13 53 -53 70 -53 9
0 20 -3 23 -6 18 -18 243 -20 257 -3 3 4 25 16 49 28 24 13 53 32 65 42 11 11
46 36 76 55 46 28 50 33 25 28 l-30 -6 25 21 c14 11 30 21 35 21 6 0 18 25 28
56 15 45 16 58 6 64 -7 5 -14 32 -15 62 -2 29 -8 54 -14 56 -5 2 -10 12 -10
23 0 12 -7 19 -20 19 -25 0 -27 38 -2 46 46 15 67 27 51 31 -11 3 -15 12 -12
27 11 56 -70 140 -136 141 -20 0 -65 -2 -101 -6z m165 -169 c-3 -5 -10 -10
-16 -10 -5 0 -9 5 -9 10 0 6 7 10 16 10 8 0 12 -4 9 -10z m-61 -96 c9 -3 16
-13 16 -21 0 -10 -6 -13 -16 -9 -9 3 -18 6 -20 6 -2 0 -4 7 -4 15 0 17 2 18
24 9z m41 -64 c8 -13 -5 -35 -14 -23 -3 5 -15 15 -26 21 -19 11 -18 11 7 12
15 0 30 -4 33 -10z m48 -132 c-6 -70 -10 -79 -23 -58 -5 8 -5 21 1 31 5 10 9
34 9 53 0 20 4 36 9 36 5 0 7 -28 4 -62z m-418 -13 c14 -25 23 -50 20 -56 -13
-20 -94 23 -95 50 0 15 28 51 41 51 4 0 19 -20 34 -45z m270 29 c20 -15 20
-16 -8 -40 -27 -23 -57 -32 -57 -17 0 19 25 73 35 73 5 0 19 -8 30 -16z m-215
-104 c12 -8 9 -10 -13 -10 -16 0 -26 4 -22 10 8 12 16 12 35 0z m15 -60 c3 -5
-1 -10 -9 -10 -9 0 -16 5 -16 10 0 6 4 10 9 10 6 0 13 -4 16 -10z"/>
<path d="M5601 7337 c-11 -13 -21 -31 -21 -40 0 -9 -5 -17 -10 -17 -6 0 -8
-15 -4 -40 5 -30 3 -40 -7 -40 -10 0 -10 -3 -2 -11 9 -9 16 -8 28 4 12 13 21
14 42 6 21 -8 29 -7 35 5 10 17 47 10 50 -10 0 -8 1 -19 2 -24 1 -11 -33 -34
-66 -46 -10 -3 -18 -12 -18 -19 0 -7 -7 -15 -15 -19 -8 -3 -15 -15 -15 -26 0
-11 -5 -20 -11 -20 -15 0 -6 -164 9 -183 6 -7 9 -23 5 -35 -6 -24 20 -62 42
-62 7 0 22 -9 35 -20 13 -11 29 -20 36 -20 7 0 15 -9 19 -19 5 -18 51 -34 98
-36 10 0 21 -5 25 -10 12 -17 62 -36 62 -24 0 6 7 8 16 5 22 -8 140 11 187 31
28 12 37 22 37 40 0 16 -6 23 -18 23 -10 0 -26 6 -35 13 -14 11 -9 18 45 60
52 42 64 47 82 38 32 -16 118 -18 123 -4 3 7 -10 26 -28 43 -19 16 -29 30 -25
30 5 0 17 -7 27 -16 10 -9 24 -14 31 -11 21 7 -84 101 -147 131 -88 42 -96 28
-12 -23 32 -20 57 -48 57 -65 0 -6 -37 13 -75 40 -17 11 -52 27 -80 34 -27 7
-55 17 -61 22 -6 4 -19 6 -28 2 -11 -4 -16 -1 -16 10 0 9 8 16 21 16 11 0 17
5 14 10 -3 6 -33 10 -66 10 -59 0 -74 10 -41 29 9 6 13 11 7 12 -5 1 -14 2
-20 4 -5 1 -16 3 -23 3 -7 1 -10 7 -7 12 4 6 10 8 15 5 11 -7 70 15 70 26 0 5
7 9 15 9 8 0 15 -3 15 -7 0 -5 37 -8 83 -8 54 0 97 -6 125 -18 46 -18 157 -23
167 -7 8 12 -24 60 -40 60 -7 0 -19 7 -26 16 -13 16 -49 34 -78 40 -8 2 -28
17 -43 33 -16 17 -39 32 -51 33 -59 4 -76 6 -128 17 -30 6 -125 13 -210 15
-86 1 -160 5 -166 9 -5 4 -20 -4 -32 -16z m179 -232 c0 -8 -4 -15 -10 -15 -5
0 -10 7 -10 15 0 8 5 15 10 15 6 0 10 -7 10 -15z m203 -70 c1 -5 -5 -11 -14
-13 -9 -2 -16 4 -16 13 0 17 27 17 30 0z m-258 -5 c-3 -5 -15 -15 -26 -20 -16
-9 -19 -7 -19 10 0 15 7 20 26 20 14 0 22 -4 19 -10z m140 -139 c7 -33 7 -34
-21 -27 -47 12 -56 37 -22 60 26 19 33 13 43 -33z m302 -22 c-6 -10 -13 -16
-15 -14 -3 2 -17 -2 -33 -10 -51 -27 -62 -15 -34 39 8 15 15 35 15 42 0 10 11
7 39 -12 35 -22 38 -28 28 -45z m-503 35 c9 -25 7 -94 -3 -94 -10 0 -14 10
-25 63 -10 41 14 67 28 31z m306 -24 c0 -5 -4 -10 -10 -10 -5 0 -10 5 -10 10
0 6 5 10 10 10 6 0 10 -4 10 -10z m-75 -70 c3 -5 -1 -10 -10 -10 -9 0 -13 5
-10 10 3 6 8 10 10 10 2 0 7 -4 10 -10z m178 -97 c-7 -2 -19 -2 -25 0 -7 3 -2
5 12 5 14 0 19 -2 13 -5z"/>
<path d="M6088 7043 c7 -3 16 -2 19 1 4 3 -2 6 -13 5 -11 0 -14 -3 -6 -6z"/>
<path d="M7028 6643 c7 -3 16 -2 19 1 4 3 -2 6 -13 5 -11 0 -14 -3 -6 -6z"/>
<path d="M6790 6421 c0 -11 -4 -21 -9 -21 -20 0 -23 -41 -5 -61 17 -19 18 -19
41 3 29 27 27 65 -4 86 -21 13 -23 13 -23 -7z"/>
<path d="M6815 6295 c-17 -13 -18 -16 -5 -25 32 -21 64 0 38 26 -12 12 -17 12
-33 -1z"/>
<path d="M6855 6164 c-7 -39 12 -73 34 -60 14 9 15 56 1 56 -5 0 -10 9 -10 20
0 34 -17 22 -25 -16z"/>
<path d="M5053 6125 c-17 -7 -39 -28 -49 -47 -19 -37 -33 -50 -48 -41 -5 4 -7
-1 -3 -11 4 -10 7 -20 7 -22 0 -2 9 -4 19 -4 11 0 23 -4 26 -10 17 -27 75 6
75 43 0 10 8 17 20 17 14 0 20 -7 20 -22 0 -12 3 -18 8 -14 4 4 7 13 7 19 0 7
15 13 33 15 18 2 32 -1 32 -7 0 -6 9 -11 21 -11 11 0 19 3 17 8 -24 48 -34 61
-62 74 -50 25 -88 29 -123 13z m-5 -105 c7 -11 9 -20 4 -20 -4 0 -13 9 -20 20
-7 11 -9 20 -4 20 4 0 13 -9 20 -20z"/>
<path d="M5450 6119 c-35 -14 -90 -58 -90 -72 0 -7 7 -21 15 -31 10 -14 18
-16 27 -8 7 5 33 15 58 22 25 6 53 13 63 16 13 4 16 0 15 -18 -3 -19 2 -24 29
-26 38 -4 116 16 109 27 -6 9 -79 6 -95 -3 -5 -3 -14 1 -21 9 -10 13 -8 16 19
21 32 7 36 12 23 30 -27 39 -97 55 -152 33z"/>
<path d="M6742 6114 c-27 -18 -30 -54 -4 -54 26 1 54 26 50 46 -4 24 -19 27
-46 8z"/>
<path d="M5304 5831 c-2 -2 -4 -11 -4 -19 0 -17 44 -9 65 12 10 10 6 12 -22
12 -19 -1 -36 -3 -39 -5z"/>
<path d="M5382 5763 c-24 -2 -51 -12 -61 -22 -13 -13 -41 -20 -97 -25 -93 -8
-102 -9 -214 -30 -47 -9 -99 -16 -117 -16 -17 0 -35 -5 -39 -11 -3 -6 -32 -23
-63 -38 -103 -49 -102 -48 -89 -76 6 -14 17 -25 25 -25 7 0 13 -4 13 -10 0 -5
9 -10 21 -10 11 0 33 -12 48 -27 51 -51 110 -68 95 -28 -8 21 41 38 91 32 22
-3 69 -12 105 -21 73 -17 104 -20 96 -8 -3 5 24 5 58 1 81 -10 117 -5 167 21
8 4 54 6 100 4 60 -3 89 -1 102 9 17 12 17 14 -3 40 -21 27 -23 27 -47 12 -20
-14 -30 -15 -53 -5 -25 10 -32 9 -52 -10 -21 -19 -31 -21 -93 -16 -38 3 -110
6 -160 7 -109 1 -121 4 -128 29 -7 29 -24 25 -42 -10 -21 -41 -50 -39 -71 5
-9 19 -21 35 -27 35 -6 0 4 11 23 25 34 25 70 33 70 16 0 -18 33 -21 52 -4 20
18 31 21 126 30 34 3 62 10 62 15 0 6 8 0 18 -12 l17 -22 19 21 c27 30 115 30
123 1 7 -25 28 -26 45 -1 16 23 58 18 84 -10 18 -21 49 -25 59 -9 9 15 41 12
55 -5 10 -11 9 -24 -4 -60 -14 -43 -14 -46 2 -41 9 2 43 10 76 17 54 12 60 11
72 -6 11 -15 18 -17 38 -7 15 7 26 7 28 1 2 -5 20 3 41 18 30 21 47 26 83 24
l44 -3 0 47 c0 25 -7 62 -15 82 -25 59 -65 95 -65 58 0 -9 -12 -20 -26 -25
-27 -11 -29 -26 -9 -72 6 -15 2 -18 -24 -18 -18 0 -48 7 -68 15 -19 8 -43 15
-53 15 -10 0 -23 7 -30 15 -7 9 -21 13 -30 10 -10 -3 -33 3 -51 14 -19 11 -52
22 -74 25 -22 3 -64 8 -92 12 -31 4 -50 11 -46 17 3 6 -8 8 -30 5 -20 -2 -33
0 -31 4 3 4 2 7 -3 6 -4 -1 -27 -3 -51 -5z"/>
<path d="M4622 5675 c-7 -22 -12 -57 -12 -77 0 -20 -4 -48 -9 -61 -6 -14 -7
-27 -4 -30 7 -8 33 3 33 14 0 9 9 20 68 84 35 39 29 64 -17 71 -25 4 -41 12
-44 23 -2 9 -9 -1 -15 -24z"/>
<path d="M4970 5347 c0 -31 80 -67 148 -67 35 0 50 -15 25 -25 -10 -3 -19 -1
-21 4 -2 6 -8 11 -13 11 -12 0 -12 -57 1 -65 6 -3 10 -1 10 4 0 6 18 11 40 11
22 0 40 -4 40 -10 0 -6 50 -10 129 -10 76 0 132 4 136 10 3 6 26 10 49 10 45
0 72 19 63 43 -7 18 24 44 65 55 17 4 34 14 36 21 7 21 -66 7 -92 -17 -24 -22
-71 -33 -166 -37 -138 -6 -155 -8 -167 -17 -8 -6 -20 -4 -35 6 -12 9 -33 16
-45 16 -12 0 -56 16 -97 35 -81 38 -106 43 -106 22z"/>
<path d="M4530 4981 c0 -10 7 -24 15 -31 8 -7 15 -19 15 -26 0 -8 8 -14 18
-14 26 0 50 -34 55 -77 4 -38 4 -38 5 7 2 33 5 41 12 30 5 -8 10 -25 10 -38 0
-12 8 -26 18 -29 27 -10 32 -24 25 -85 -5 -50 -3 -58 11 -58 9 0 16 -4 16 -10
0 -5 7 -10 15 -10 8 0 15 5 15 11 0 5 5 7 11 3 8 -5 8 -9 -1 -14 -18 -11 -1
-33 20 -27 13 3 19 -5 27 -39 6 -23 7 -48 2 -55 -12 -20 1 -39 27 -39 12 0 27
-6 31 -12 5 -9 38 -13 98 -14 50 -1 119 -7 154 -13 51 -9 66 -9 73 1 6 10 11
11 28 1 11 -7 28 -13 38 -13 10 0 23 -5 29 -11 8 -8 20 -7 43 4 17 9 38 13 46
10 8 -3 20 -1 27 5 7 6 34 16 60 22 25 7 44 16 42 21 -8 11 88 59 119 59 13 0
26 -5 28 -11 7 -22 57 10 72 46 8 19 23 38 33 42 10 3 28 18 40 32 11 14 25
23 29 19 4 -4 1 -14 -6 -23 -7 -8 -9 -22 -6 -31 8 -20 26 -3 45 44 8 19 21 32
31 32 10 0 25 11 34 25 9 14 21 23 26 20 11 -7 40 5 40 17 0 5 11 19 24 31 28
26 45 97 23 97 -7 0 -23 -9 -35 -20 -12 -11 -30 -20 -41 -20 -11 0 -27 -7 -35
-16 -9 -8 -16 -12 -16 -8 0 5 -5 3 -12 -4 -7 -7 -21 -12 -33 -12 -12 0 -27 -6
-33 -12 -10 -10 -17 -10 -32 0 -25 15 -30 15 -30 -2 0 -10 -11 -12 -46 -8 -33
3 -49 1 -54 -9 -11 -16 -66 1 -63 19 4 18 -24 14 -31 -3 -9 -23 -65 -43 -114
-40 -23 1 -45 -2 -48 -7 -6 -10 -89 0 -117 14 -14 7 -22 4 -37 -14 -17 -21
-21 -22 -41 -9 -16 9 -24 10 -27 3 -2 -7 -15 -9 -31 -6 -16 4 -32 1 -35 -5 -5
-8 -14 -7 -29 4 -12 8 -35 15 -52 15 -16 1 -41 7 -55 15 -14 8 -39 14 -55 15
-17 0 -39 6 -50 14 -37 25 -95 56 -108 56 -7 0 -29 18 -50 40 -22 24 -46 40
-60 40 -13 0 -33 9 -45 20 -12 11 -28 20 -36 20 -9 0 -21 9 -28 20 -16 25 -38
26 -38 1z m210 -295 c0 -3 -4 -8 -10 -11 -5 -3 -10 -1 -10 4 0 6 5 11 10 11 6
0 10 -2 10 -4z m134 -102 c11 -4 14 -13 9 -31 -5 -24 -4 -25 21 -21 34 7 42
-6 18 -30 -30 -30 -68 -18 -75 21 -3 18 -8 40 -12 50 -8 18 9 23 39 11z m806
-24 c0 -5 -7 -10 -16 -10 -8 0 -12 5 -9 10 3 6 10 10 16 10 5 0 9 -4 9 -10z
m-677 -45 c1 -5 -6 -11 -15 -13 -11 -2 -18 3 -18 13 0 17 30 18 33 0z"/>
<path d="M6076 4895 c-4 -10 1 -15 14 -15 11 0 20 7 20 15 0 8 -6 15 -14 15
-8 0 -16 -7 -20 -15z"/>
<path d="M6466 4765 c-5 -27 0 -47 24 -95 17 -33 45 -100 62 -148 17 -48 38
-96 48 -107 15 -18 16 -32 8 -125 -13 -162 -49 -257 -147 -385 -66 -87 -141
-153 -206 -184 -12 -5 -27 -16 -34 -25 -7 -9 -22 -16 -32 -16 -11 0 -19 -6
-19 -14 0 -7 -34 -30 -74 -50 -41 -21 -80 -44 -87 -52 -6 -8 -17 -14 -24 -14
-7 0 -18 -7 -25 -15 -7 -8 -23 -15 -35 -15 -13 0 -26 -7 -29 -16 -3 -8 -11
-12 -17 -8 -8 4 -7 9 2 15 10 6 11 9 2 9 -8 0 -13 15 -13 40 0 29 -4 40 -15
40 -8 0 -15 -7 -15 -15 0 -8 -5 -15 -10 -15 -6 0 -13 7 -16 15 -4 8 -17 15
-30 15 -15 0 -24 -6 -24 -15 0 -18 -4 -18 -50 0 -29 11 -31 14 -11 14 20 1 22
3 11 16 -7 9 -19 14 -26 11 -7 -3 -17 8 -24 25 -9 20 -19 29 -36 29 -13 0 -24
5 -24 10 0 6 -7 10 -15 10 -8 0 -19 9 -25 20 -6 11 -17 20 -25 20 -7 0 -15 4
-17 9 -3 8 -181 16 -280 12 -36 -1 -38 -3 -38 -32 l0 -32 -50 5 c-69 7 -77 -6
-50 -74 12 -29 26 -61 31 -70 5 -10 5 -19 -1 -23 -6 -3 -10 1 -10 9 0 12 -11
16 -50 16 -39 0 -52 4 -60 20 -7 13 -21 20 -42 20 -17 0 -38 7 -47 15 -25 24
-84 61 -111 69 -57 17 -101 23 -106 14 -15 -24 -145 138 -189 237 -60 135 -80
284 -50 381 10 32 25 69 33 81 20 31 43 178 36 225 -5 29 -13 43 -31 51 -20 9
-28 6 -56 -21 -19 -18 -36 -30 -39 -26 -4 3 -9 -3 -12 -14 -4 -10 -18 -24 -33
-31 -25 -11 -25 -11 -13 6 8 10 30 35 49 56 30 32 32 37 15 37 -11 0 -35 -13
-54 -30 -19 -16 -38 -29 -41 -30 -3 0 -32 -24 -63 -53 -50 -47 -56 -57 -51
-80 6 -23 4 -27 -15 -27 -12 0 -31 -5 -43 -12 -21 -11 -21 -10 -7 8 8 10 17
21 20 24 3 3 14 21 25 40 10 19 29 45 42 58 13 13 23 27 23 32 0 17 -64 11
-105 -10 -22 -11 -51 -20 -65 -20 -36 0 -99 -45 -106 -78 -4 -15 -16 -37 -28
-50 -19 -21 -27 -23 -73 -17 -41 5 -53 3 -60 -10 -8 -13 -15 -14 -36 -6 -21 8
-38 7 -70 -4 -23 -8 -54 -15 -69 -15 -18 0 -29 -7 -33 -21 -5 -15 -10 -18 -18
-10 -6 6 -18 11 -26 11 -13 -1 -13 -3 3 -15 19 -15 14 -35 -10 -35 -8 0 -14 9
-14 20 0 28 -35 26 -63 -3 -26 -29 -66 -37 -115 -26 -42 9 -151 -17 -159 -38
-3 -7 -9 -13 -14 -13 -16 0 -69 -43 -69 -56 0 -8 -10 -10 -32 -5 -43 10 -90 6
-117 -9 -13 -6 -29 -9 -36 -6 -8 3 -25 -4 -38 -15 -14 -10 -35 -19 -46 -19
-12 0 -21 -5 -21 -11 0 -10 -63 -41 -77 -37 -5 1 -25 -6 -45 -16 -21 -10 -45
-16 -53 -12 -8 3 -15 0 -15 -7 0 -12 -30 -36 -62 -49 -13 -5 -18 -2 -19 10 -1
10 -4 7 -8 -8 -6 -20 -13 -25 -39 -24 -26 2 -33 -3 -38 -22 -3 -13 -10 -24
-15 -24 -11 0 -61 -34 -97 -64 l-22 -19 0 26 c0 15 -4 27 -10 27 -5 0 -10 -7
-10 -15 0 -13 -4 -14 -20 -5 -26 14 -36 7 -50 -35 -8 -24 -18 -35 -31 -35 -10
0 -19 5 -19 12 0 7 -10 -1 -22 -17 -13 -16 -32 -39 -43 -50 -21 -22 -21 -22
-2 -58 15 -30 25 -37 49 -37 47 0 28 -23 -29 -36 -60 -13 -73 -20 -73 -40 0
-8 -6 -14 -14 -14 -8 0 -16 -16 -20 -40 -3 -22 -10 -40 -16 -40 -5 0 -9 -26
-8 -57 0 -86 -21 -127 -77 -146 -46 -16 -67 -8 -45 18 18 22 -5 58 -33 49 -23
-7 -37 -22 -37 -40 0 -24 -85 -33 -134 -14 -19 7 -27 6 -33 -4 -4 -7 -25 -19
-46 -25 -20 -7 -42 -21 -47 -31 -6 -10 -18 -21 -28 -24 -18 -6 -62 -84 -62
-109 0 -7 -9 -29 -20 -50 -11 -20 -20 -50 -20 -65 0 -16 -3 -32 -8 -36 -4 -4
-8 -17 -9 -29 -4 -36 -12 -119 -16 -167 -3 -25 -9 -58 -16 -73 -6 -16 -11 -34
-11 -40 0 -19 -50 -62 -105 -89 -98 -49 -111 -58 -145 -99 -52 -62 -76 -83
-97 -85 -73 -4 -73 -4 -73 -28 0 -15 7 -27 18 -30 10 -3 26 -19 35 -36 10 -16
22 -30 27 -30 15 0 24 -70 11 -83 -6 -6 -11 -18 -11 -26 0 -13 2 -13 9 -2 5 8
16 11 29 7 11 -4 23 -2 27 4 5 7 46 9 128 5 214 -9 378 -16 517 -20 74 -3 185
-7 245 -10 260 -12 608 -25 840 -30 138 -3 266 -8 285 -10 19 -3 134 -7 255
-11 121 -3 248 -9 282 -13 37 -4 60 -4 56 2 -3 5 7 7 23 4 16 -4 101 -9 189
-12 88 -3 207 -8 265 -10 103 -4 236 -9 590 -20 96 -4 277 -10 402 -15 125 -5
323 -12 440 -15 117 -3 276 -8 353 -11 77 -3 187 -7 245 -9 58 -3 143 -7 190
-10 86 -6 135 -8 540 -20 124 -4 230 -10 235 -14 20 -12 -95 -16 -305 -10
-230 7 -590 16 -1025 24 -148 3 -371 9 -495 14 -124 5 -236 9 -250 9 -50 -1
-396 13 -440 17 -78 7 -278 7 -289 1 -6 -4 -16 -4 -21 -1 -6 3 -79 8 -163 11
-83 2 -195 6 -247 9 -174 9 -553 25 -750 31 -107 4 -204 11 -215 17 -13 7 -20
6 -23 -2 -4 -12 -32 -16 -32 -3 0 4 -79 8 -176 9 -97 2 -182 6 -188 11 -6 4
-102 7 -213 7 -112 0 -203 2 -203 5 0 3 -35 5 -78 5 -104 0 -420 13 -622 26
-148 10 -202 12 -250 9 -8 -1 -40 2 -70 5 -52 5 -57 4 -88 -25 -38 -35 -38
-57 0 -101 13 -15 52 -64 88 -110 36 -45 70 -87 75 -93 6 -6 39 -45 75 -86
140 -161 212 -230 240 -230 39 0 70 -28 146 -131 l66 -89 39 6 c22 4 58 1 82
-5 26 -7 53 -8 72 -3 27 8 30 13 28 47 -2 24 -13 51 -30 72 -16 19 -36 45 -47
58 -42 53 16 104 101 89 85 -15 276 -126 357 -208 24 -23 26 -24 298 -29 202
-4 293 -10 348 -22 201 -45 221 -119 74 -269 -46 -47 -82 -93 -89 -115 -11
-32 -43 -58 -90 -74 -6 -2 -2 -19 9 -39 19 -35 19 -37 2 -63 -19 -29 -126 -83
-184 -92 -43 -7 -34 -16 73 -73 381 -202 918 -389 1350 -470 391 -73 581 -90
1000 -90 539 1 909 50 1395 186 367 103 888 322 1115 468 28 18 58 35 67 39
20 7 291 176 298 186 3 4 41 32 85 61 89 61 271 202 325 253 19 18 68 62 109
97 185 161 467 461 631 670 19 25 38 50 43 55 4 6 37 51 73 100 36 50 72 98
80 108 7 9 14 20 14 24 0 3 10 20 23 37 13 17 30 46 38 64 8 17 17 32 21 32 5
0 8 5 8 11 0 6 20 41 43 78 81 122 85 136 86 257 0 98 -2 114 -26 164 -15 30
-30 57 -34 60 -3 3 -14 21 -24 40 -24 46 -57 90 -68 90 -5 0 -8 -15 -6 -32 1
-18 1 -49 0 -68 l-1 -35 -20 25 c-12 16 -20 41 -20 67 0 23 -5 45 -10 48 -6 3
-7 17 -4 31 4 15 0 34 -12 52 -10 15 -20 38 -21 52 -1 14 -7 26 -12 28 -13 4
-31 45 -56 125 -19 60 -38 73 -50 35 -6 -20 -8 -20 -12 -5 -2 9 -13 17 -23 17
-26 0 -50 10 -50 22 0 6 6 5 15 -2 12 -10 15 -10 15 1 0 11 2 11 10 -1 9 -13
11 -13 20 0 13 20 7 36 -14 32 -9 -2 -16 4 -16 13 0 8 7 15 15 15 12 0 13 4 5
19 -14 28 -12 41 6 41 17 0 15 20 -7 77 -6 15 -12 43 -14 61 -1 18 -7 38 -14
45 -19 19 -36 -12 -50 -93 -7 -38 -18 -70 -23 -70 -7 0 -8 15 -3 43 4 23 7 74
7 112 -1 113 -2 117 -23 112 -23 -6 -25 2 -3 17 19 15 8 46 -16 46 -22 0 -35
16 -20 25 17 10 -6 32 -46 45 -27 9 -38 9 -49 0 -13 -11 -15 -7 -15 22 0 22
-7 40 -21 52 -21 18 -21 18 -17 -16 3 -18 7 -40 9 -48 2 -9 -4 -16 -16 -17
-22 -4 -65 53 -65 84 0 14 -2 15 -9 4 -7 -10 -11 -9 -22 7 -8 10 -33 29 -56
41 -24 12 -43 25 -43 29 0 4 -20 20 -45 35 -25 16 -45 31 -45 33 0 11 40 2 54
-12 9 -8 33 -18 53 -21 l38 -6 -32 34 c-17 19 -39 52 -50 73 -10 22 -29 47
-43 57 -29 21 -160 37 -160 19 0 -6 6 -13 14 -16 17 -7 50 -53 42 -61 -2 -3
-15 4 -27 16 -13 12 -29 21 -36 21 -7 0 -13 4 -13 9 0 11 -45 29 -83 34 -44 5
-36 21 13 27 l45 6 -60 17 c-33 10 -70 22 -81 27 -12 5 -58 12 -103 16 -69 6
-84 4 -100 -10 -15 -13 -24 -15 -46 -6 -16 6 -64 14 -107 17 -55 4 -76 9 -68
17 19 19 10 25 -72 51 -66 22 -95 26 -144 21 -73 -6 -111 -22 -117 -48 -5 -19
-6 -19 -34 1 -22 17 -47 22 -117 25 -65 3 -93 8 -101 19 -6 9 -20 15 -31 14
-12 -1 -18 3 -16 12 4 19 -19 32 -35 20 -6 -6 -9 -18 -6 -27 4 -9 -7 -3 -24
15 -38 41 -132 61 -108 24 3 -6 15 -11 26 -11 11 0 23 -10 29 -24 6 -18 20
-27 45 -32 34 -6 53 -20 42 -31 -8 -7 -107 27 -108 38 -1 5 -2 15 -3 21 0 7
-8 13 -16 13 -8 0 -29 8 -46 17 -17 10 -34 14 -38 11 -3 -4 -6 1 -6 10 0 22
-191 137 -229 137 -11 0 -23 5 -26 10 -3 6 -16 10 -28 10 -20 0 -20 -1 -2 -14
11 -8 16 -19 12 -30 -9 -24 -36 -19 -49 9 -18 40 -68 46 -68 8 0 -11 -12 -4
-35 20 -20 21 -40 37 -44 37 -5 0 -12 -16 -15 -35z m254 -65 c0 -5 -7 -10 -15
-10 -8 0 -15 5 -15 10 0 6 7 10 15 10 8 0 15 -4 15 -10z m50 -66 c0 -8 -10
-14 -25 -14 -15 0 -25 6 -25 14 0 9 -7 12 -20 9 -11 -3 -20 -1 -20 5 0 6 8 12
18 14 26 6 72 -12 72 -28z m-2335 -96 c-4 -13 -9 -31 -11 -40 -3 -10 -10 -18
-16 -18 -6 0 -8 9 -3 23 4 12 7 30 8 40 1 9 7 17 15 17 9 0 11 -7 7 -22z m-35
-14 c0 -8 -5 -12 -10 -9 -6 4 -8 11 -5 16 9 14 15 11 15 -7z m-399 -121 c13 3
35 9 48 13 18 5 23 4 19 -7 -2 -8 -18 -16 -34 -17 -17 -2 -40 -17 -57 -35 -19
-22 -30 -28 -38 -20 -7 7 -7 17 -1 29 6 11 13 28 17 39 5 15 8 16 14 6 6 -8
18 -12 32 -8z m-371 -93 c39 0 47 -16 12 -25 -15 -4 -35 -14 -44 -23 -30 -30
-47 -42 -58 -42 -5 0 -10 -7 -10 -16 0 -8 -4 -12 -10 -9 -6 4 -5 16 3 35 15
35 71 101 75 89 2 -5 17 -9 32 -9z m235 -70 c-3 -5 -10 -10 -16 -10 -5 0 -9 5
-9 10 0 6 7 10 16 10 8 0 12 -4 9 -10z m-528 -86 c-3 -3 -12 -4 -19 -1 -8 3
-5 6 6 6 11 1 17 -2 13 -5z m5431 -129 c20 -22 32 -45 32 -62 -1 -28 -1 -28
-18 7 -9 19 -29 41 -45 48 -15 7 -27 20 -27 28 0 24 25 15 58 -21z m-6424
-180 c16 -12 17 -17 6 -30 -7 -8 -15 -15 -19 -15 -12 0 -60 47 -54 54 11 11
47 6 67 -9z m91 -15 c-3 -5 -10 -10 -16 -10 -5 0 -9 5 -9 10 0 6 7 10 16 10 8
0 12 -4 9 -10z m-192 -51 c-4 -15 -9 -17 -17 -9 -8 8 -7 13 4 20 8 5 16 10 17
10 0 0 -1 -9 -4 -21z m137 -34 c0 -8 -2 -15 -4 -15 -2 0 -6 7 -10 15 -3 8 -1
15 4 15 6 0 10 -7 10 -15z m26 -80 c-8 -8 -19 -15 -25 -15 -6 0 -11 7 -11 15
0 9 10 15 26 15 23 0 24 -2 10 -15z m2354 5 c0 -5 -4 -10 -10 -10 -5 0 -10 5
-10 10 0 6 5 10 10 10 6 0 10 -4 10 -10z m680 -25 c0 -8 -4 -15 -10 -15 -5 0
-10 7 -10 15 0 8 5 15 10 15 6 0 10 -7 10 -15z m-180 -21 c0 -8 -4 -12 -10 -9
-5 3 -10 10 -10 16 0 5 5 9 10 9 6 0 10 -7 10 -16z m-258 -79 c11 -14 10 -25
-2 -25 -5 0 -10 7 -10 15 0 21 -28 19 -33 -2 -4 -17 -4 -17 -12 0 -4 10 -2 23
5 32 13 15 32 8 52 -20z m68 -29 c0 -9 -40 -13 -46 -5 -3 5 6 9 20 9 14 0 26
-2 26 -4z m110 -36 c0 -4 -13 -13 -30 -19 -29 -10 -30 -9 -30 19 0 28 1 29 30
19 17 -6 30 -15 30 -19z m3955 -190 c3 -5 -1 -10 -9 -10 -9 0 -16 5 -16 10 0
6 4 10 9 10 6 0 13 -4 16 -10z m-1831 -1329 c8 -13 -30 -20 -72 -14 -30 5 -33
8 -17 14 28 11 83 11 89 0z m83 3 c-3 -3 -12 -4 -19 -1 -8 3 -5 6 6 6 11 1 17
-2 13 -5z m-1190 -846 c86 -40 93 -67 68 -241 -16 -112 -30 -140 -83 -163 -33
-14 -49 -14 -135 -3 -64 8 -101 17 -104 26 -5 12 42 372 53 402 6 19 147 5
201 -21z m420 -61 c7 -7 10 -22 6 -36 -6 -23 -8 -24 -90 -17 -92 7 -92 7 -96
-55 -2 -33 0 -34 43 -45 40 -9 45 -14 48 -42 l3 -32 -54 0 c-60 0 -67 -6 -67
-65 0 -32 3 -35 38 -40 122 -21 117 -18 120 -53 3 -30 1 -32 -27 -32 -48 0
-184 21 -203 31 -28 15 -31 49 -13 165 9 60 20 136 25 169 13 90 24 95 151 78
57 -8 109 -20 116 -26z m180 -20 c0 -1 12 -65 25 -142 13 -77 28 -139 33 -139
11 1 57 78 81 135 39 93 49 104 94 107 23 2 47 -1 52 -6 6 -6 -26 -78 -83
-192 -71 -138 -100 -185 -121 -196 -39 -20 -54 -18 -87 13 -27 26 -31 40 -60
218 -17 105 -31 196 -31 204 0 10 11 12 48 6 26 -4 48 -8 49 -8z"/>
<path d="M6071 1033 c-16 -64 -35 -219 -28 -236 8 -21 89 -24 105 -4 6 7 18
58 28 114 15 95 15 104 0 128 -9 14 -24 25 -34 25 -9 0 -27 3 -39 6 -19 5 -23
0 -32 -33z"/>
<path d="M5960 4710 c0 -5 5 -10 10 -10 6 0 10 5 10 10 0 6 -4 10 -10 10 -5 0
-10 -4 -10 -10z"/>
<path d="M4930 4352 c0 -22 5 -32 15 -32 19 0 19 19 0 44 -14 19 -15 18 -15
-12z"/>
<path d="M8738 4163 c7 -3 16 -2 19 1 4 3 -2 6 -13 5 -11 0 -14 -3 -6 -6z"/>
<path d="M5272 4099 c-21 -8 -22 -10 -8 -25 9 -8 16 -19 16 -23 0 -10 92 -31
136 -31 20 0 44 5 55 11 20 10 20 11 3 30 -12 14 -31 19 -68 19 -29 0 -59 7
-70 15 -22 17 -31 18 -64 4z"/>
<path d="M1988 3535 c-3 -27 -2 -56 2 -64 10 -20 20 67 10 93 -6 16 -8 10 -12
-29z"/>
<path d="M1850 3486 c0 -7 12 -16 28 -19 32 -6 37 -3 29 18 -8 19 -57 20 -57
1z"/>
<path d="M1825 3467 c-4 -10 -5 -21 -1 -24 10 -10 18 4 13 24 -4 17 -4 17 -12
0z"/>
<path d="M1930 3470 c0 -5 5 -10 10 -10 6 0 10 5 10 10 0 6 -4 10 -10 10 -5 0
-10 -4 -10 -10z"/>
<path d="M1922 3400 c0 -14 2 -19 5 -12 2 6 2 18 0 25 -3 6 -5 1 -5 -13z"/>
<path d="M1342 2917 c-30 -31 -45 -89 -37 -137 8 -49 26 -65 54 -50 19 9 21
21 23 95 0 47 1 90 2 97 2 21 -20 19 -42 -5z"/>
<path d="M1280 2670 c-12 -16 -17 -30 -11 -30 6 0 11 4 11 9 0 5 10 11 22 13
13 2 24 11 26 21 6 28 -25 20 -48 -13z"/>
<path d="M1916 1501 c-8 -13 3 -38 19 -45 27 -10 67 -88 72 -142 5 -50 4 -53
-18 -58 -62 -12 -117 -14 -156 -3 -52 14 -66 2 -32 -26 125 -106 289 -232 353
-273 42 -27 92 -61 109 -77 18 -15 42 -30 55 -33 12 -3 22 -10 22 -14 0 -5 21
-18 46 -31 25 -12 65 -36 88 -53 112 -85 134 -91 231 -66 88 22 131 43 145 70
9 16 4 26 -26 59 -19 22 -33 44 -30 50 3 5 28 12 56 16 53 7 64 16 74 57 3 14
40 59 81 99 103 100 125 150 84 188 -50 46 -330 77 -599 65 l-145 -6 -45 43
c-62 59 -180 136 -251 165 -59 24 -123 31 -133 15z m808 -270 c4 -5 -12 -7
-36 -4 -57 8 -61 13 -10 13 22 0 43 -4 46 -9z m-137 -7 c-3 -3 -12 -4 -19 -1
-8 3 -5 6 6 6 11 1 17 -2 13 -5z m233 2 c0 -3 -4 -8 -10 -11 -5 -3 -10 -1 -10
4 0 6 5 11 10 11 6 0 10 -2 10 -4z m-325 -17 c17 -8 16 -9 -7 -4 -14 3 -28 1
-30 -3 -2 -5 -16 -15 -32 -23 -16 -8 -34 -23 -40 -34 -6 -11 -14 -22 -17 -25
-28 -24 -39 -221 -14 -246 20 -20 19 -34 -1 -34 -10 0 -14 5 -10 15 3 9 -1 18
-9 21 -12 5 -15 25 -15 85 0 46 4 79 10 79 6 0 10 16 10 35 0 64 43 129 90
138 38 7 43 6 65 -4z m444 -4 c3 -3 0 -23 -6 -45 -8 -33 -7 -42 7 -55 9 -8 19
-14 21 -13 3 2 -12 -14 -33 -34 -21 -21 -38 -41 -38 -46 0 -12 -38 -37 -67
-44 -34 -9 -35 16 -2 48 16 15 29 36 29 46 0 9 9 22 21 28 30 16 24 78 -10
107 l-25 22 49 -4 c26 -3 51 -7 54 -10z m-773 -87 c4 -7 3 -8 -4 -4 -7 4 -13
4 -13 -1 -5 -28 -9 -71 -9 -90 0 -26 -25 -21 -41 8 -10 19 -1 43 30 82 16 20
27 22 37 5z m-96 -8 c13 -8 13 -11 -2 -26 -19 -19 -38 -11 -38 17 0 21 16 24
40 9z m441 -67 c7 -7 3 -12 -16 -17 -33 -8 -50 1 -35 19 12 15 35 14 51 -2z
m138 -272 c15 -10 8 -15 -34 -25 -29 -7 -29 -7 -11 13 21 23 25 24 45 12z"/>
</g>
</svg>
